<svg width="201" height="200" viewBox="0 0 201 200" fill="none" xmlns="http://www.w3.org/2000/svg">
<path d="M90.7135 0.25086C59.421 3.4996 32.0009 20.5262 15.3376 47.0641C-8.28822 84.679 -3.82904 134.624 26.0553 167.15C42.6795 185.233 63.2543 195.997 87.9754 199.52C92.6302 200.185 108.003 200.146 112.814 199.481C137.144 196.115 157.719 185.39 174.304 167.385C187.955 152.589 196.678 133.684 199.729 112.352C200.394 107.733 200.394 92.3116 199.729 87.6929C197.421 71.4101 192.258 57.5931 183.691 44.6764C180.093 39.1966 176.455 34.7345 171.37 29.607C155.763 13.7938 136.44 4.04758 114.183 0.759699C109.372 0.0551529 95.4856 -0.257979 90.7135 0.25086ZM108.941 57.554C113.049 58.2585 117.077 59.6285 120.715 61.5464C124.392 63.4252 129.712 68.6702 131.472 72.0363C132.919 74.8154 134.249 79.4341 134.406 82.2131L134.484 84.1702L121.537 84.2876L108.589 84.3659L108.316 82.9177C107.69 79.5906 105.773 77.6336 102.409 76.929C97.1285 75.833 92.9431 77.9467 92.5519 81.9391C92.1608 86.3621 94.5077 87.5363 109.137 90.2371C120.089 92.2725 125.878 94.621 130.064 98.8482C134.679 103.428 136.831 110.63 135.892 118.341C134.406 130.279 126.23 138.42 112.149 141.982C109.098 142.765 107.768 142.882 100.101 142.843C92.0043 142.843 91.2611 142.765 87.5842 141.786C73.8155 138.068 65.7577 129.026 64.5842 115.953L64.3887 114.113H77.8053H91.1829L91.6523 116.305C92.3172 119.241 94.3121 121.276 97.4023 122.177C103.113 123.82 108.628 121.002 108.628 116.462C108.628 112.548 105.89 111.1 94.625 109.025C79.8393 106.324 72.7594 102.762 68.6523 95.9518C65.9924 91.5288 64.9363 84.7964 66.0315 78.9644C68.0264 67.809 77.023 60.0982 90.9873 57.554C94.938 56.8494 104.912 56.8494 108.941 57.554Z" fill="#00FFFF" fill-opacity="0.39"/>
</svg>


